<?xml version="1.0" encoding="utf-8"?>
<!-- Generator: Adobe Illustrator 16.0.0, SVG Export Plug-In . SVG Version: 6.00 Build 0)  -->
<!DOCTYPE svg PUBLIC "-//W3C//DTD SVG 1.1//EN" "http://www.w3.org/Graphics/SVG/1.1/DTD/svg11.dtd">
<svg version="1.1" id="Layer_1" xmlns="http://www.w3.org/2000/svg" xmlns:xlink="http://www.w3.org/1999/xlink" x="0px" y="0px"
	 width="570px" height="570px" viewBox="0 0 570 570" enable-background="new 0 0 570 570" xml:space="preserve">
<g>
	<path fill="#ED2517" d="M128.233,227.034c-5.924,0-12.263,0-18.187,0c-0.035,24.729-0.07,40.747-0.105,65.477
		c-7.814-24.133-15.637-40.109-23.479-65.477c-6.65,0-10.812,0-17.463,0c0,38.644,0,77.288,0,115.932
		c5.895-0.839,12.207-1.643,18.108-2.413c0.017-24.23,0.034-39.126,0.05-63.357c8.121,23.851,13.114,37.919,21.211,60.585
		c6.348-0.725,13.321-1.617,19.675-2.262C128.108,299.357,128.17,263.195,128.233,227.034"/>
	<path fill="#ED2517" d="M196.163,227.034c-16.863,0-33.518,0-50.381,0c-0.068,35.652-0.136,71.305-0.204,106.957
		c16.853-1.533,33.724-2.786,50.608-3.759c0.009-5.213,0.019-12.706,0.028-17.918c-10.979,0.675-21.482,1.378-32.422,2.113
		c0.019-9.585,0.038-17.512,0.057-27.098c7.996-0.138,16.44-0.017,24.608-0.156c0.01-5.239,0.02-12.76,0.029-17.999
		c-8.094,0.144-16.642,0.16-24.606,0.312c0.019-9.586,0.038-14.844,0.057-24.43c5.01-0.061,9.92-0.068,14.822-0.068
		c0.861,0,1.721,0,2.582,0.001c0.856,0,1.712,0,2.569,0c4.088,0,8.192-0.005,12.367-0.041
		C196.287,239.735,196.154,232.246,196.163,227.034"/>
	<path fill="#ED2517" d="M264.071,227.114c-18.493,0-37.607,0.001-56.1,0.002c-0.009,5.179-0.017,12.639-0.025,17.817
		c0.805-0.006,1.609-0.008,2.414-0.008c2.437,0,4.874,0.023,7.312,0.048c2.435,0.023,4.871,0.048,7.306,0.048
		c0.625,0,1.249-0.002,1.874-0.005c-0.038,28.742-0.075,54.995-0.112,83.737c5.936-0.221,12.287-0.406,18.224-0.558
		c0.027-28.585,0.054-54.681,0.08-83.265c6.271-0.024,12.75-0.043,19.021-0.056C264.066,239.785,264.069,232.205,264.071,227.114"/>
	<path fill="#ED2517" d="M326.462,227.034c-16.863,0-33.726,0-50.588,0c-0.005,33.559-0.01,67.116-0.015,100.674
		c1.956-0.008,3.934-0.011,5.919-0.011c4.045,0,8.122,0.015,12.105,0.046c-0.005-14.241-0.009-27.238-0.013-41.48
		c0.993,0.004,1.996,0.006,3.006,0.006c2.352,0,4.742-0.01,7.142-0.02c2.4-0.01,4.811-0.02,7.199-0.02
		c2.462,0,4.901,0.01,7.286,0.043c-0.004-5.105-0.009-12.7-0.014-17.806c-2.252-0.022-4.554-0.03-6.877-0.03
		c-2.49,0-5.005,0.009-7.511,0.018c-2.502,0.009-4.994,0.018-7.443,0.018c-0.938,0-1.869-0.001-2.793-0.004
		c-0.003-9.155-0.005-14.322-0.008-23.479c1.978,0.003,3.95,0.004,5.917,0.004c1.995,0,3.985-0.001,5.975-0.002
		c2.006-0.001,4.011-0.002,6.017-0.002c4.888,0,9.778,0.005,14.712,0.027C326.473,239.899,326.467,232.151,326.462,227.034"/>
	<path fill="#ED2517" d="M338.27,227.115c0.045,33.882-0.118,67.764-0.074,101.646c16.174,0.603,33.17,1.256,49.323,2.372
		c-0.01-5.212-0.02-12.707-0.029-17.919c-10.225-0.602-20.868-1.322-31.101-1.748c-0.046-29.017,0.114-55.335,0.068-84.351
		C350.532,227.115,344.194,227.115,338.27,227.115"/>
	<path fill="#ED2517" d="M402.444,227.118c0.069,35.039,0.138,70.078,0.207,105.118c5.926,0.458,12.057,0.949,17.978,1.476
		c0.021-35.507,0.07-71.062,0.002-106.593C414.707,227.118,408.368,227.118,402.444,227.118"/>
	<path fill="#ED2517" d="M436.222,227.12c7.273,17.717,13.927,35.484,21.313,54.299c-7.676,18.072-15.489,36.025-23.157,53.361
		c6.352,0.627,12.923,1.544,19.27,2.251c4.553-11.165,8.694-19.76,13.252-31.227c4.55,12.215,8.686,21.651,13.224,34.26
		c6.336,0.821,14.55,2.001,20.878,2.901c-7.671-20.506-16.061-41.857-23.774-61.237c7.682-18.2,15.52-35.574,23.498-54.603
		c-6.551,0-13.309-0.001-19.859-0.002c-4.924,11.761-8.312,19.318-13.031,30.514c-4.397-11.648-7.347-19.187-11.751-30.516
		C449.531,227.121,442.772,227.121,436.222,227.12"/>
</g>
</svg>
